<?xml version="1.0" encoding="utf-8"?>
<!-- Generator: Adobe Illustrator 20.1.0, SVG Export Plug-In . SVG Version: 6.00 Build 0)  -->
<svg version="1.1" id="Layer_1" xmlns="http://www.w3.org/2000/svg" xmlns:xlink="http://www.w3.org/1999/xlink" x="0px" y="0px"
	 width="456px" height="210px" viewBox="0 0 456 210" style="enable-background:new 0 0 456 210;" xml:space="preserve">
<style type="text/css">
	.st0{fill:#FFFFFF;}
</style>
<g id="Page-1_1_">
	<g id="Artboard">
		<g id="Page-1">
			<g id="Fill-29">
				<g>
					<path class="st0" d="M123.2,201c0,0.9-0.5,1.4-1.4,1.4h-10.4v6.2h14.2c3.3,0,4.7-1.4,4.7-4.7v-6.6h-6.6v3.8H123.2z"/>
					<rect x="111.3" y="179.6" class="st0" width="11.9" height="6.2"/>
					<path class="st0" d="M127.9,162c0-3.3-1.4-4.7-4.7-4.7h-12.3v6.2h8.5c0.9,0,1.4,0.5,1.4,1.4v3.3h6.6V162H127.9z"/>
					<path class="st0" d="M199.6,196.7l-4.3,5.2c0,0,4.7,5.7,12.8,7.1v-6.6C203.4,201,199.6,196.7,199.6,196.7z"/>
					<path class="st0" d="M98.5,163.5L98.5,163.5v40.4c0,3.3,1.4,4.7,4.7,4.7h2.4v-8.1l0,0v-14.7l0,0v-6.2l0,0v-16.1l0,0v-6.2h-7.1
						V163.5z"/>
					<path class="st0" d="M142.2,201c0,0.9-0.5,1.4-1.4,1.4h-2.8v6.2h7.1c3.3,0,4.7-1.4,4.7-4.7v-47h-7.1V201H142.2z"/>
					<polygon class="st0" points="174.9,194.8 156,167.7 156,180.1 175.9,208.6 182.1,208.6 182.1,157.3 174.9,157.3 					"/>
					<path class="st0" d="M76.7,161.6l-9.5,27.5l3.3,11.4l12.8-35.1c0.5-1.4,0.9-1.4,2.4-1.4h0.9v-6.6h-3.8
						C79,157.3,78.1,157.8,76.7,161.6z"/>
					<path class="st0" d="M25.9,167.7v2.4h6.6v-4.3c0-6.2-6.6-8.5-11.9-9.5v6.6C23,163.9,25.9,165.4,25.9,167.7z"/>
					<path class="st0" d="M5,196.7l-4.3,5.2c0,0,4.7,5.7,12.8,7.1v-6.6C8.3,201,5,196.7,5,196.7z"/>
					<path class="st0" d="M447.9,167.7v2.4h6.6v-4.3c0-6.2-6.6-8.5-11.9-9.5v6.6C445.6,163.9,447.9,165.4,447.9,167.7z"/>
					<path class="st0" d="M63.4,200.5C63.4,200.5,63.4,200,63.4,200.5l-2.8-9l-10.4-29.9c-0.5-3.8-1.9-4.3-5.2-4.3h-4.3v6.2h0.9
						c1.4,0,1.9,0.5,2.4,1.4l15.7,43.7h6.2L63.4,200.5L63.4,200.5z"/>
					<path class="st0" d="M203.9,170.1c0-2.8,1.9-5.2,4.7-6.2v-7.1c-7.1,1.4-11.9,6.6-11.9,13.3c0,16.1,24.2,14.2,24.2,25.2
						c0,3.8-2.4,6.6-6.2,7.1v7.1c8.1-0.9,13.3-7.1,13.3-14.2C228.1,178.2,203.9,180.6,203.9,170.1z"/>
					<path class="st0" d="M9.2,170.1c0-2.8,1.9-5.2,4.7-6.2v-7.1c-7.1,1.4-11.9,6.6-11.9,13.3c0,16.1,24.2,14.2,24.2,25.2
						c0,3.8-2.4,6.6-6.2,7.1v7.1c8.1-0.9,13.3-7.1,13.3-14.2C33.5,178.2,9.2,180.6,9.2,170.1z"/>
					<path class="st0" d="M378.6,95.1c2.4-11.4-8.1-27.5-7.6-33.7c0-6.6,12.8-26.1,13.3-35.6c0-1.9-0.5-4.3-1.9-4.7
						c-1.9-0.5-5.2-0.9-10,0.5c-4.3,1.4-13.3,7.1-16.1,9.5s-19.9,16.6-24.7,18.5s-14.2,0.5-19,0c-4.7-0.5-15.2-5.2-15.2-5.2
						s2.8-2.4,5.2-2.4c3.8-0.5,7.6,0.9,8.1,0c1.9-2.4-28-32.3-42.7-40.8c-1.4-0.9-2.8,0.5-7.1,4.3c-2.8,2.8-17.6,20.4-19,21.4
						c-3.3,2.8-4.7,1.9-5.7,1.9c-0.5,0-1.9-0.5-1.9-1.9c-0.5-0.9,1.4-3.3,1.4-3.3s-3.8,0.9-4.7,0.5c-0.5-0.9,0.9-3.8,0.9-3.8
						s-3.8,1.4-4.7,0.9c-0.9-0.5,0.5-2.4,0.5-2.4s-1.9-0.5-2.8-1.4c-0.9-0.9-0.9-3.3-0.9-3.3s-1.9,1.4-4.3,2.4
						c-2.4,0.9-3.3,0.5-3.8-0.5c-0.9-0.9,0.9-5.2,0.9-5.2s-2.4,1.4-4.7,0.5c-2.4-0.9-1.4-2.8-1.4-2.8s-2.4,0.9-3.3,0
						c-1.4-1.4-0.5-2.8-0.5-2.8s-4.7,3.3-6.2,4.3c-1.4,0.5-2.8-0.5-2.4-1.4c0-0.9,2.8-5.2,2.8-5.2s-1.9,1.4-3.3,1.4
						c-1.4,0-2.4-1.9-2.4-1.9s-3.8,2.4-5.2,1.4c-0.9-1.4-0.5-3.3-0.5-3.3s-4.3,4.3-4.7,5.2c-0.9,0.9-2.8,1.9-3.8,0.5
						c-0.5-0.9,1.9-5.7,1.9-5.7s-4.7,4.7-6.6,3.8c-0.9-0.5-0.9-2.8-0.9-2.8s-3.3,4.7-4.7,6.2c-1.4,1.4-0.5-2.4-0.5-3.8
						c0,0-5.7,10.4-8.1,10.4c-0.9,0-1.9-3.3-1.9-3.3s-2.4,3.8-3.3,7.1c-0.9,3.3-1.9,10.9-1.9,10.9s-41.3,13.8-43.2,14.2
						c-6.6,2.4-18.5,6.6-20.4,7.6c-1.9,0.5-9.5,3.3-10.9,3.8c-1.4,0.5-3.3,1.4-3.8,2.4c0,0.9,0,1.4,0.9,1.9c0,0,0,0,0,0.5
						s0,0.5,0,0.9c0.5,0.5,0.5,0.5,0.5,0.5s0-0.5,0-0.9c0-0.5,0.5-0.5,0.5-0.5l0.5,0.9c0,0,0,0,0-0.5c0-0.5,0-0.5,0-0.5s0,0,0.5,0
						c0.5,0,0.5,0,0.5,0.5c0,0.5,0,0.9,0,0.5l0.5-0.9c2.8,0.9,4.7,1.4,7.1,3.3c2.8,2.4,9.5,7.1,12.3,7.6c2.4,0.5,2.8,0.9,3.8-0.5
						c0.9-1.4,1.4-2.4,0-3.3c-1.4-0.9-2.4-1.4-2.8-2.4c0-0.5,1.4-0.5,1.9,0c0.5,0.5,1.9,0.9,2.8,1.9c1.9,1.4,0,5.2-1.9,6.2
						c-1.4,0.5-2.8,0.5-4.7,0c-2.4-0.9-6.6-3.3-6.6-3.3l-2.8-1.9c0,0-3.3-0.9-4.7-0.9c-0.5,0-1.4,0-1.9-0.5l-0.5-0.5l-0.9-0.5v-0.5
						c0-0.5,0-0.9-0.5-0.9c0,0-0.5,0-0.5,0.5c0,0-0.5,0.5-0.5,0.9s0,0-0.5,0c-0.5,0,0,0,0-0.5c0-0.5,0.5-0.9,0-1.4
						c0,0-0.5,0-0.5,0.5c-0.5,0.5-1.4,1.4-1.4,1.4l0,0c-0.9,0-1.4,0-1.9,0.9c-0.5,0.9,0.5,2.8,1.9,3.8c1.4,0.9,5.2,2.8,14.2,5.7
						c1.4,0.5,19.9,3.8,19.9,3.8s7.6-0.5,11.9-7.1c3.3-5.7,3.3-14.7,2.4-19.9c-0.5-1.9-1.9-4.3-1.4-4.3c1.4-0.9,2.4,1.4,3.3,4.3
						c0.9,2.4,3.8,21.4-8.5,28c-0.9,0.5-2.4,0.9-1.9,0.9c3.3,1.9,6.6,2.8,10.4,3.3c2.4,0,5.2-0.5,6.6-0.9c2.4-0.5,5.2-1.4,7.1-4.7
						c1.4-2.8,2.8-8.1,3.3-10.4c0.5-2.8,1.4-5.2,3.3-8.5c1.4-3.3,1.4-4.7-0.5-5.7c-1.9-0.9-5.2-1.9-7.1-2.8
						c-2.4-0.9-3.3-1.9-2.4-3.8c0-2.4-3.8-2.8-4.7-3.3c-0.9-0.5,0-1.4,0.9-1.4c1.4,0,2.8,0.5,4.3,1.4s0.9,1.4,1.4,3.3s6.6,2.8,9,3.8
						c1.9,0.9,2.4,3.8,1.9,5.7c-0.5,1.4-1.4,3.8-2.4,5.7c-0.9,1.4-0.9,2.8-1.9,4.7c-0.9,1.9-1.9,6.2-2.8,9.5
						c-0.9,3.3-2.8,5.7-5.2,6.6c-2.4,1.4-6.2,1.9-5.7,2.4c0.5,0.5,1.9,0.9,2.8,0.9c2.8,0.9,20.4,6.2,20.4,6.2s0.9,5.7,1.9,11.4
						c0.9,5.7,6.2,17.1,8.1,19.9c4.3,6.2,5.7,5.7,5.7,5.2c0.5-0.9-3.3-5.7-3.8-9c-0.5-1.9,3.8,4.7,9.5,7.1c0.5,0.5,0.5-0.5-0.5-1.9
						c-0.9-1.4-5.2-10-4.7-10.4c0.5-0.5,2.8,2.4,4.3,3.3c1.4,0.9,3.3,1.9,6.2,2.8c0.5,0,1.4,0,0.9-1.9c-0.5-2.4-2.4-5.2-1.9-5.7
						c0.5-0.5,2.8,0.9,3.8,1.4c0.9,0,1.4,0,0.9-0.9c-0.5-0.9,0.5-2.4,0-3.8c-0.5-1.4,1.4-1.4,1.4-2.4c0-0.9,0.5-1.9-2.4-3.8
						c-2.4-1.9-9.5-6.2-10.9-7.1c-1.9-0.9-0.9-1.4,0-0.9c0.9,0.5,4.3,0.9,5.7,1.4c25.2,2.8,39.4,2.4,47.5-0.5
						c7.1-2.4,19.5-10,19.5-10s13.8,10,33.7,16.6c2.4,0.9,4.3,0.5,4.3,0.5l6.6-15.2c0,0,1.4-2.4-0.5-4.3s-9-8.1-9-8.1
						s19.9-1.9,29-2.8c9-0.5,15.7,0.5,15.7,0.5s5.2-1.9,7.1-2.4c1.9-0.5,5.2-2.4,7.1-4.3c1.9-2.4,2.4-4.7,1.9-9.5
						c-0.9-4.3-3.3-5.2-3.3-6.2c0-0.9,1.9-0.5,3.3,0.9c1.9,1.9,2.8,4.7,2.8,9c0,3.8-1.9,7.6-6.6,10.4c-3.8,1.9-6.2,2.8-7.1,2.8
						c-0.9,0.5,5.7,3.3,7.6,4.3c6.6,4.3,14.2,11.4,17.6,14.2c3.3,2.4,10,6.6,15.7,7.6C376.2,102.7,377.7,99.9,378.6,95.1z
						 M105.2,57.6c-0.5,0.9-1.4,3.3-1.9,2.8c-0.5,0,1.4-2.8,0.9-4.7c0-1.4-0.9-2.8-2.4-3.3c-1.4-0.5-2.8-0.5-3.8,0
						c-0.9,0.5-1.9,1.4-2.4,2.4c-0.5,0.9-0.9,1.9-0.5,2.4c0.5,0.5,0.5,0,0.5,0s0.9-1.9,1.4-1.9l0,0c-0.5,0.5-0.5,1.4-0.5,2.4
						c0.5,0.9,0.9,1.9,1.9,2.4c1.4,0.5,2.4-0.5,2.8-1.9c0.5-1.9,0-2.8-0.5-3.3c-0.5-0.5-2.4-0.5-2.4-0.9c-0.5-0.5,1.4-0.9,2.8-0.5
						c1.4,0.9,1.4,1.9,1.4,3.3c-0.5,1.4-0.5,1.4-0.5,2.4c-0.5,0.5,0.5,0.9,0.5,0.9s-0.9,0.5-1.4,0.5c-2.4,0.5-5.2-0.5-6.2-1.9
						s-0.9-3.3-0.5-5.2c0.9-3.8,4.3-4.3,6.6-3.8c1.4,0,2.4,0.5,3.8,1.9C105.6,54.3,105.6,56.2,105.2,57.6z"/>
					<rect x="391.9" y="144.5" class="st0" width="5.2" height="7.6"/>
					<path class="st0" d="M362.9,182.5c0,14.2,9.5,25.2,22.3,26.6v-7.1c-8.5-1.4-15.2-9.5-15.2-19.9c0-10,6.6-17.6,15.2-19v-7.1
						C372.4,158.2,362.9,168.7,362.9,182.5z"/>
					<path class="st0" d="M391.9,156.3v7.1c8.5,1.4,15.2,9.5,15.2,19c0,10-6.6,18-15.2,19.9v7.1c12.8-1.4,22.8-12.8,22.8-26.6
						C414.7,168.7,405.2,158.2,391.9,156.3z"/>
					<rect x="380" y="144.5" class="st0" width="5.2" height="7.6"/>
					<path class="st0" d="M427.5,196.7l-4.3,5.2c0,0,4.7,6.2,13.3,7.6v-6.6C430.8,201,427.5,196.7,427.5,196.7z"/>
					<path class="st0" d="M431.3,170.1c0-2.8,1.9-5.2,4.7-6.2v-7.1c-7.1,1.4-11.9,6.6-11.9,13.3c0,16.1,24.2,14.2,24.2,25.2
						c0,3.8-2.4,6.2-5.7,7.1v7.1c8.1-1.4,12.8-7.6,12.8-14.2C455.5,178.2,431.3,180.6,431.3,170.1z"/>
					<path class="st0" d="M306.9,182.9c0,14.7,9.5,25.2,21.8,26.6v-7.1c-8.1-1.9-14.2-9-14.2-19.5c0-10,6.2-17.6,14.2-19.5v-6.6
						C316.4,158.2,306.9,169.2,306.9,182.9z"/>
					<rect x="240" y="157.8" class="st0" width="7.1" height="51.3"/>
					<path class="st0" d="M227.2,170.1v-4.3c0-6.2-6.6-8.5-11.9-9.5v6.6c2.8,0.5,5.7,2.4,5.7,4.3v2.4h6.2V170.1z"/>
					<path class="st0" d="M272.7,201l-7.6-15.2c-1.4-2.8-2.8-3.3-2.8-3.3l0,0c0,0,1.4-0.9,2.8-3.3l12.3-21.4h-8.1L258,177.7
						c-0.9,1.4-2.4,1.9-4.3,1.9h-1.4v6.2h0.9c1.9,0,3.8,0,4.3,1.9l8.5,18c1.4,3.3,2.8,3.8,7.1,3.8h3.8v-6.2h-1.4
						C274.6,202.9,273.7,202.9,272.7,201z"/>
					<path class="st0" d="M350.6,162.5c0,0-4.7-5.2-15.2-6.2v6.6c6.6,0.9,10.9,4.7,10.9,4.7L350.6,162.5z"/>
					<path class="st0" d="M349.2,183.4h-6.6v6.2h2.8c0.9,0,1.4,0.5,1.4,1.4v5.2c0,0-4.3,5.2-11.9,6.2v7.1c12.8-1.4,18-10.4,18-12.3
						c0.5-1.9,0-9,0-9C353.5,184.8,352,183.4,349.2,183.4z"/>
				</g>
			</g>
		</g>
	</g>
</g>
</svg>
