<svg id="Layer_1" xmlns="http://www.w3.org/2000/svg" width="153" height="52" viewBox="0 0 153 52"><style>.st0{fill:#fff}</style><path class="st0" d="M54.5 35.8l16.1 16.1h4.1l-16-16.1zm37.9 0l16 16.1h4.1l-16-16.1zM109.1.3h3.8L87.7 31.2v-4.7zm11.4 0h-2.6v51.6h2.9V6.2L150 51.9h2.9zm29.6 0h2.9v30.8h-2.9zM82.2 51.9V.3h-2.9v51.5c0 .1 2.8.1 2.9.1zM10.1.3h7.3c13.4 0 24.3 10.9 24.3 24.3v2.8c0 13.4-10.9 24.3-24.3 24.3h-7.3v-2.9h7.3c11.8 0 21.4-9.6 21.4-21.4v-2.8c0-11.8-9.6-21.4-21.4-21.4h-7.3m39.8 25H57c6.5 0 11.9-5.2 11.9-11.7v-1.6c0-6.4-5.3-11.7-11.9-11.7H44.8V.3H57c8.2 0 14.8 6.5 14.8 14.6v1.6c0 8.1-6.6 14.6-14.8 14.6h-7.1v-2.9z"/><path class="st0" d="M.3 15.1l16 16.1h4.1l-16-16.1z"/></svg>