<svg version="1.1" id="Layer_1" xmlns="http://www.w3.org/2000/svg" x="0" y="0" width="155" height="47.2" viewBox="0 0 155 47.2" xml:space="preserve"><style type="text/css">.st0{fill:#fff}</style><path class="st0" d="M75.3 32.2c-1.2 5.4-5.3 7.9-11.7 7.9H62c-5.6 0-8.6-1.9-8.6-5.9 0-.6.1-1.3.2-2.1l4.9-23c4.5 0 6 0 6 2.3 0 1.1-.4 2.8-1 5.4 2.3-.2 4.7-.5 7.1-.8 3 .1 6.6 1.5 6.6 5.9 0 .6 0 1.3-.2 2.1l-1.7 8.2zm-5-8.2c.1-.6.2-1.2.2-1.7 0-1.5-.8-2.2-3.1-2.2H63l-2.6 12.1c-.1.6-.2 1.2-.2 1.6 0 1.5.8 2.2 3.1 2.2h.8c3.1 0 3.9-1.4 4.5-3.9l1.7-8.1zM85.6 39.7H79l4.9-23.4h6.7l-5 23.4zM92 12.5c-.2 1-1.5 1.8-3.9 1.8h-.7c-2.5 0-3.4-.8-3.2-1.8l.4-1.9c.2-.9 1.5-1.8 3.9-1.8h.7c2.4 0 3.4.9 3.2 1.9l-.4 1.8zM97.7 39.7H91l6.5-30.5c4.6 0 6 .1 6 2.3 0 1-.3 2.4-.8 4.5l-5 23.7zM126.2 32.2c-1.2 5.5-5.2 7.9-11.7 7.9H113c-5.6 0-8.6-1.9-8.6-5.8 0-.7.1-1.4.3-2.1l1.7-8.1c1.1-5.4 5.3-7.9 11.7-7.9h1.6c5.5 0 8.6 1.9 8.6 5.9 0 .7-.1 1.3-.3 2.1l-1.8 8zM121 24c.1-.6.2-1.1.2-1.6 0-1.6-.9-2.3-3.2-2.3h-.3c-3 0-4.2 1.5-4.7 4l-1.7 8.1c-.1.6-.2 1.2-.2 1.6 0 2.1 1.5 2.3 3.4 2.3 3.2 0 4.2-1.3 4.8-4L121 24zM151.4 39.7c-4.6 0-6.1 0-6.1-2.3 0-1.1.4-2.8.9-5.3l1.7-7.8c.1-.7.3-1.4.3-1.9 0-1.4-.8-2.1-3-2.1h-4.5l-4.1 19.4h-6.8l4.9-22.9 11.8-.8c5.5 0 8.5 1.9 8.5 5.9 0 .7 0 1.4-.2 2.1l-3.4 15.7z"/><g><path class="st0" d="M23.6 47.2C10.6 47.2 0 36.6 0 23.6S10.6 0 23.6 0s23.6 10.6 23.6 23.6-10.6 23.6-23.6 23.6zm0-44.9c-11.8 0-21.3 9.6-21.3 21.3s9.6 21.3 21.3 21.3 21.3-9.6 21.3-21.3S35.3 2.3 23.6 2.3z"/><path class="st0" d="M33.2 28.6c1-.5 1.2-1.4 1-1.9-.3.3-.8.6-1.2.8-.5.2-1 .2-1.4.1.3-.1.5-.1.8-.3.4-.1.7-.3.9-.7.2-.3.2-.7 0-1-.3-.5-.7-.8-1.2-1-.9-.3-1.9-.4-2.8-.4-.4 0-.9 0-1.3.1-.3 0-.5.1-.8.2-.8.2-1.5.2-2.3.2-.6 0-1.2-.2-1.8-.5-.5-.2-.9-.6-1.3-1-.5-.7-.8-1.4-1-2.2 0-.1-.1-.3-.1-.5v.1c0 .7.1 1.3.4 2 .3.8.8 1.6 1.6 2.1.6.4 1.3.6 2 .7.9.1 1.7 0 2.5-.2.1 0 .3-.1.5-.1-.1.2-.1.4-.1.6-.1.7-.1 1.5.1 2.2.1.6.3 1.2.6 1.8.2.5.5.9.8 1.4.3.4.5.8.8 1.2.2.3.5.5.7.8l.8.8c.1.1.3.3.5.4-.5.1-1.1.3-1.6.3-.9.1-1.7.3-2.6.3-.8 0-1.7-.1-2.5-.2-.6-.1-1.2-.3-1.8-.5-.7-.3-1.4-.6-2-1-.4-.3-.8-.6-1.1-.9-.3-.3-.7-.7-1-1.1-.4-.5-.8-1.1-1.1-1.8-.5-1-.8-2.1-.9-3.2-.1-.9-.1-1.9.1-2.8.1-.8.3-1.6.6-2.3.3-.8.6-1.5 1-2.2.4-.7.8-1.4 1.3-2.2.2-.3.5-.6.7-1-.6-.3-1.2-.4-1.8-.4-.5 0-1.1.1-1.6.4-.6.3-1.1.6-1.6 1.1-.5.4-.9 1-1.2 1.5-.3.4-.6.9-.8 1.4-.4.7-.7 1.5-1 2.2-.4.8-.8 1.6-1.3 2.3-.5.8-1 1.5-1.6 2.2-.5.6-1.1 1.1-1.7 1.5-.7.5-1.4.8-2.1 1-.4.1-.8.1-1.2.2.3-.1.7-.3 1-.4.6-.3 1.1-.7 1.6-1.2s.9-1 1.3-1.6c.6-.9 1.2-1.8 1.6-2.7.2-.5.5-1 .7-1.4.3-.8.6-1.7 1-2.6.2-.6.4-1.2.6-1.9.3-.7.6-1.4 1-2.1.3-.4.5-.8.8-1.2.3-.4.7-.8 1.1-1.2.4-.4.9-.8 1.4-1 .3-.2.7-.4 1.1-.5.6-.3 1.2-.4 1.9-.5.8-.1 1.7-.2 2.5-.1.3 0 .6.1.9.1h.1c-.2 1-.3 1.9.1 2.9-.2-2.1.6-3.8 2.1-5.3 0 .3.1.5.1.7.1.8.4 1.5 1 2 .3.3.6.5 1 .6.7.3 1.4.3 2.2.1.4-.1.9-.2 1.3-.3-.1.4-.3.7-.6 1-.3.3-.6.5-1 .6v.2c.2.7.5 1.4.8 2s.7 1.2 1.2 1.8c.4.5.8.9 1.4 1.2.6.4 1.3.6 2 .7.6.1 1.2.1 1.8-.1-.1.2-.1.4-.2.5 0 0 0 .1-.1.1-.1.2-.1.4.1.6.3.4.4.9.2 1.4-.2.6-.7 1-1.4 1h-.2c.6.3.8.6.6.9-.2-.1-.5-.1-.7-.2-.2 0-.4-.1-.5.1-.1.2 0 .4.1.6.2.3.5.6.9.8.7.4 1.1 1.3.8 2.1-.1.3-.4.6-.7.8-1.2 1.1-1.9 1.1-2.8 1zm-2.3-9.8l-.1-.1c-.4-.5-.8-.9-1.3-1.2-.5-.3-1.2-.5-1.8-.3-.4.1-.7.2-1 .4.1.2.3.4.5.5.3.3.6.5 1 .5.5.1 1-.1 1.4-.4.1-.1.1-.1.2 0 .3.2.7.4 1.1.6z" id="FyqlVI.tif_1_"/></g></svg>