<svg version="1.1" id="Layer_1" xmlns="http://www.w3.org/2000/svg" x="0" y="0" width="456" height="210" viewBox="0 0 456 210" xml:space="preserve"><style type="text/css">.st0{fill:#fff}</style><g id="Page-1_1_"><g id="Artboard"><g id="Page-1"><g id="Fill-29"><path class="st0" d="M123.2 201c0 .9-.5 1.4-1.4 1.4h-10.4v6.2h14.2c3.3 0 4.7-1.4 4.7-4.7v-6.6h-6.6v3.8h-.5zM111.3 179.6h11.9v6.2h-11.9zM127.9 162c0-3.3-1.4-4.7-4.7-4.7h-12.3v6.2h8.5c.9 0 1.4.5 1.4 1.4v3.3h6.6V162h.5zM199.6 196.7l-4.3 5.2s4.7 5.7 12.8 7.1v-6.6c-4.7-1.4-8.5-5.7-8.5-5.7zM98.5 163.5v40.4c0 3.3 1.4 4.7 4.7 4.7h2.4v-51.3h-7.1v6.2zM142.2 201c0 .9-.5 1.4-1.4 1.4H138v6.2h7.1c3.3 0 4.7-1.4 4.7-4.7v-47h-7.1V201h-.5zM174.9 194.8L156 167.7v12.4l19.9 28.5h6.2v-51.3h-7.2zM76.7 161.6l-9.5 27.5 3.3 11.4 12.8-35.1c.5-1.4.9-1.4 2.4-1.4h.9v-6.6h-3.8c-3.8-.1-4.7.4-6.1 4.2zM25.9 167.7v2.4h6.6v-4.3c0-6.2-6.6-8.5-11.9-9.5v6.6c2.4 1 5.3 2.5 5.3 4.8zM5 196.7l-4.3 5.2s4.7 5.7 12.8 7.1v-6.6C8.3 201 5 196.7 5 196.7zM447.9 167.7v2.4h6.6v-4.3c0-6.2-6.6-8.5-11.9-9.5v6.6c3 1 5.3 2.5 5.3 4.8zM63.4 200.5s0-.5 0 0l-2.8-9-10.4-29.9c-.5-3.8-1.9-4.3-5.2-4.3h-4.3v6.2h.9c1.4 0 1.9.5 2.4 1.4l15.7 43.7h6.2l-2.5-8.1zM203.9 170.1c0-2.8 1.9-5.2 4.7-6.2v-7.1c-7.1 1.4-11.9 6.6-11.9 13.3 0 16.1 24.2 14.2 24.2 25.2 0 3.8-2.4 6.6-6.2 7.1v7.1c8.1-.9 13.3-7.1 13.3-14.2.1-17.1-24.1-14.7-24.1-25.2zM9.2 170.1c0-2.8 1.9-5.2 4.7-6.2v-7.1C6.8 158.2 2 163.4 2 170.1c0 16.1 24.2 14.2 24.2 25.2 0 3.8-2.4 6.6-6.2 7.1v7.1c8.1-.9 13.3-7.1 13.3-14.2.2-17.1-24.1-14.7-24.1-25.2zM378.6 95.1c2.4-11.4-8.1-27.5-7.6-33.7 0-6.6 12.8-26.1 13.3-35.6 0-1.9-.5-4.3-1.9-4.7-1.9-.5-5.2-.9-10 .5-4.3 1.4-13.3 7.1-16.1 9.5s-19.9 16.6-24.7 18.5-14.2.5-19 0c-4.7-.5-15.2-5.2-15.2-5.2s2.8-2.4 5.2-2.4c3.8-.5 7.6.9 8.1 0 1.9-2.4-28-32.3-42.7-40.8-1.4-.9-2.8.5-7.1 4.3-2.8 2.8-17.6 20.4-19 21.4-3.3 2.8-4.7 1.9-5.7 1.9-.5 0-1.9-.5-1.9-1.9-.5-.9 1.4-3.3 1.4-3.3s-3.8.9-4.7.5c-.5-.9.9-3.8.9-3.8s-3.8 1.4-4.7.9c-.9-.5.5-2.4.5-2.4s-1.9-.5-2.8-1.4c-.9-.9-.9-3.3-.9-3.3s-1.9 1.4-4.3 2.4c-2.4.9-3.3.5-3.8-.5-.9-.9.9-5.2.9-5.2s-2.4 1.4-4.7.5c-2.4-.9-1.4-2.8-1.4-2.8s-2.4.9-3.3 0c-1.4-1.4-.5-2.8-.5-2.8s-4.7 3.3-6.2 4.3c-1.4.5-2.8-.5-2.4-1.4 0-.9 2.8-5.2 2.8-5.2s-1.9 1.4-3.3 1.4-2.4-1.9-2.4-1.9-3.8 2.4-5.2 1.4c-.9-1.4-.5-3.3-.5-3.3s-4.3 4.3-4.7 5.2c-.9.9-2.8 1.9-3.8.5-.5-.9 1.9-5.7 1.9-5.7s-4.7 4.7-6.6 3.8c-.9-.5-.9-2.8-.9-2.8s-3.3 4.7-4.7 6.2c-1.4 1.4-.5-2.4-.5-3.8 0 0-5.7 10.4-8.1 10.4-.9 0-1.9-3.3-1.9-3.3s-2.4 3.8-3.3 7.1c-.9 3.3-1.9 10.9-1.9 10.9S113.9 43.3 112 43.7c-6.6 2.4-18.5 6.6-20.4 7.6-1.9.5-9.5 3.3-10.9 3.8-1.4.5-3.3 1.4-3.8 2.4 0 .9 0 1.4.9 1.9v1.4l.5.5v-.9c0-.5.5-.5.5-.5l.5.9v-.5-.5h.5c.5 0 .5 0 .5.5v.5l.5-.9c2.8.9 4.7 1.4 7.1 3.3 2.8 2.4 9.5 7.1 12.3 7.6 2.4.5 2.8.9 3.8-.5.9-1.4 1.4-2.4 0-3.3-1.4-.9-2.4-1.4-2.8-2.4 0-.5 1.4-.5 1.9 0s1.9.9 2.8 1.9c1.9 1.4 0 5.2-1.9 6.2-1.4.5-2.8.5-4.7 0-2.4-.9-6.6-3.3-6.6-3.3l-2.8-1.9s-3.3-.9-4.7-.9c-.5 0-1.4 0-1.9-.5l-.5-.5-.9-.5v-.5c0-.5 0-.9-.5-.9 0 0-.5 0-.5.5 0 0-.5.5-.5.9s0 0-.5 0 0 0 0-.5.5-.9 0-1.4c0 0-.5 0-.5.5L78 65.1c-.9 0-1.4 0-1.9.9s.5 2.8 1.9 3.8c1.4.9 5.2 2.8 14.2 5.7 1.4.5 19.9 3.8 19.9 3.8s7.6-.5 11.9-7.1c3.3-5.7 3.3-14.7 2.4-19.9-.5-1.9-1.9-4.3-1.4-4.3 1.4-.9 2.4 1.4 3.3 4.3.9 2.4 3.8 21.4-8.5 28-.9.5-2.4.9-1.9.9 3.3 1.9 6.6 2.8 10.4 3.3 2.4 0 5.2-.5 6.6-.9 2.4-.5 5.2-1.4 7.1-4.7 1.4-2.8 2.8-8.1 3.3-10.4.5-2.8 1.4-5.2 3.3-8.5 1.4-3.3 1.4-4.7-.5-5.7-1.9-.9-5.2-1.9-7.1-2.8-2.4-.9-3.3-1.9-2.4-3.8 0-2.4-3.8-2.8-4.7-3.3-.9-.5 0-1.4.9-1.4 1.4 0 2.8.5 4.3 1.4s.9 1.4 1.4 3.3 6.6 2.8 9 3.8c1.9.9 2.4 3.8 1.9 5.7-.5 1.4-1.4 3.8-2.4 5.7-.9 1.4-.9 2.8-1.9 4.7-.9 1.9-1.9 6.2-2.8 9.5-.9 3.3-2.8 5.7-5.2 6.6-2.4 1.4-6.2 1.9-5.7 2.4s1.9.9 2.8.9c2.8.9 20.4 6.2 20.4 6.2s.9 5.7 1.9 11.4c.9 5.7 6.2 17.1 8.1 19.9 4.3 6.2 5.7 5.7 5.7 5.2.5-.9-3.3-5.7-3.8-9-.5-1.9 3.8 4.7 9.5 7.1.5.5.5-.5-.5-1.9-.9-1.4-5.2-10-4.7-10.4.5-.5 2.8 2.4 4.3 3.3 1.4.9 3.3 1.9 6.2 2.8.5 0 1.4 0 .9-1.9-.5-2.4-2.4-5.2-1.9-5.7s2.8.9 3.8 1.4c.9 0 1.4 0 .9-.9-.5-.9.5-2.4 0-3.8s1.4-1.4 1.4-2.4c0-.9.5-1.9-2.4-3.8-2.4-1.9-9.5-6.2-10.9-7.1-1.9-.9-.9-1.4 0-.9.9.5 4.3.9 5.7 1.4 25.2 2.8 39.4 2.4 47.5-.5 7.1-2.4 19.5-10 19.5-10s13.8 10 33.7 16.6c2.4.9 4.3.5 4.3.5l6.6-15.2s1.4-2.4-.5-4.3-9-8.1-9-8.1 19.9-1.9 29-2.8c9-.5 15.7.5 15.7.5s5.2-1.9 7.1-2.4c1.9-.5 5.2-2.4 7.1-4.3 1.9-2.4 2.4-4.7 1.9-9.5-.9-4.3-3.3-5.2-3.3-6.2 0-.9 1.9-.5 3.3.9 1.9 1.9 2.8 4.7 2.8 9 0 3.8-1.9 7.6-6.6 10.4-3.8 1.9-6.2 2.8-7.1 2.8-.9.5 5.7 3.3 7.6 4.3C347 83.9 354.6 91 358 93.8c3.3 2.4 10 6.6 15.7 7.6 2.5 1.3 4-1.5 4.9-6.3zM105.2 57.6c-.5.9-1.4 3.3-1.9 2.8-.5 0 1.4-2.8.9-4.7 0-1.4-.9-2.8-2.4-3.3-1.4-.5-2.8-.5-3.8 0-.9.5-1.9 1.4-2.4 2.4-.5.9-.9 1.9-.5 2.4.5.5.5 0 .5 0s.9-1.9 1.4-1.9c-.5.5-.5 1.4-.5 2.4.5.9.9 1.9 1.9 2.4 1.4.5 2.4-.5 2.8-1.9.5-1.9 0-2.8-.5-3.3s-2.4-.5-2.4-.9c-.5-.5 1.4-.9 2.8-.5 1.4.9 1.4 1.9 1.4 3.3-.5 1.4-.5 1.4-.5 2.4-.5.5.5.9.5.9s-.9.5-1.4.5c-2.4.5-5.2-.5-6.2-1.9s-.9-3.3-.5-5.2c.9-3.8 4.3-4.3 6.6-3.8 1.4 0 2.4.5 3.8 1.9.8 2.7.8 4.6.4 6zM391.9 144.5h5.2v7.6h-5.2zM362.9 182.5c0 14.2 9.5 25.2 22.3 26.6V202c-8.5-1.4-15.2-9.5-15.2-19.9 0-10 6.6-17.6 15.2-19V156c-12.8 2.2-22.3 12.7-22.3 26.5zM391.9 156.3v7.1c8.5 1.4 15.2 9.5 15.2 19 0 10-6.6 18-15.2 19.9v7.1c12.8-1.4 22.8-12.8 22.8-26.6 0-14.1-9.5-24.6-22.8-26.5zM380 144.5h5.2v7.6H380zM427.5 196.7l-4.3 5.2s4.7 6.2 13.3 7.6v-6.6c-5.7-1.9-9-6.2-9-6.2zM431.3 170.1c0-2.8 1.9-5.2 4.7-6.2v-7.1c-7.1 1.4-11.9 6.6-11.9 13.3 0 16.1 24.2 14.2 24.2 25.2 0 3.8-2.4 6.2-5.7 7.1v7.1c8.1-1.4 12.8-7.6 12.8-14.2.1-17.1-24.1-14.7-24.1-25.2zM306.9 182.9c0 14.7 9.5 25.2 21.8 26.6v-7.1c-8.1-1.9-14.2-9-14.2-19.5 0-10 6.2-17.6 14.2-19.5v-6.6c-12.3 1.4-21.8 12.4-21.8 26.1zM240 157.8h7.1v51.3H240zM227.2 170.1v-4.3c0-6.2-6.6-8.5-11.9-9.5v6.6c2.8.5 5.7 2.4 5.7 4.3v2.4h6.2v.5zM272.7 201l-7.6-15.2c-1.4-2.8-2.8-3.3-2.8-3.3s1.4-.9 2.8-3.3l12.3-21.4h-8.1L258 177.7c-.9 1.4-2.4 1.9-4.3 1.9h-1.4v6.2h.9c1.9 0 3.8 0 4.3 1.9l8.5 18c1.4 3.3 2.8 3.8 7.1 3.8h3.8v-6.2h-1.4c-.9-.4-1.8-.4-2.8-2.3zM350.6 162.5s-4.7-5.2-15.2-6.2v6.6c6.6.9 10.9 4.7 10.9 4.7l4.3-5.1zM349.2 183.4h-6.6v6.2h2.8c.9 0 1.4.5 1.4 1.4v5.2s-4.3 5.2-11.9 6.2v7.1c12.8-1.4 18-10.4 18-12.3.5-1.9 0-9 0-9 .6-3.4-.9-4.8-3.7-4.8z"/></g></g></g></g></svg>